<?xml version="1.0" encoding="utf-8"?>
<!-- Generator: Adobe Illustrator 28.2.0, SVG Export Plug-In . SVG Version: 6.00 Build 0)  -->
<svg version="1.1" id="Layer_1" xmlns="http://www.w3.org/2000/svg" xmlns:xlink="http://www.w3.org/1999/xlink" x="0px" y="0px"
	 viewBox="0 0 106 80" style="enable-background:new 0 0 106 80;" xml:space="preserve">
<style type="text/css">
	.st0{fill-rule:evenodd;clip-rule:evenodd;fill:#EDD1D1;}
	.st1{fill:#A5181B;}
	.st2{fill-rule:evenodd;clip-rule:evenodd;fill:#FFFFFF;}
</style>
<g id="_x31_9021594">
</g>
<g id="_x31_9021594_00000095310787870412102250000002813155340414569659_">
</g>
<g id="JNS-Logo-in-frame" transform="translate(1, 0)">
	<g id="Path">
		<polyline class="st0" points="9.9,79.7 -0.5,67.5 11.5,67.5 		"/>
		<path class="st1" d="M10,80L-0.9,67.8C-1,67.7-1,67.5-1,67.3c0.1-0.2,0.3-0.3,0.5-0.3h11v1H0.6l10.2,11.3L10,80z"/>
	</g>
	<g id="Rectangle">
		<rect x="10.5" y="0.5" class="st2" width="94" height="79"/>
		<path class="st1" d="M105,80H10V0h95V80z M11,79h93V1H11V79z"/>
	</g>
	<g>
		<path class="st1" d="M23.7,29.6h6.1v26.6c0,2.6-0.7,4.4-2.2,5.4C26,62.5,23.2,63,19,63v7c6.3,0,11-1.1,14.1-3.4s4.6-5.8,4.6-10.6
			V23.1h-14V29.6z"/>
		<path class="st1" d="M33.4,10c-1.2,0-2.4,0.5-3.2,1.3c-0.9,0.8-1.4,2-1.3,3.2c0,1.2,0.5,2.4,1.3,3.2c0.9,0.9,2,1.3,3.2,1.3
			c1.2,0,2.4-0.5,3.2-1.3c0.9-0.8,1.4-2,1.3-3.2c0-1.2-0.5-2.4-1.3-3.2C35.8,10.5,34.7,10,33.4,10z"/>
		<path class="st1" d="M57.7,22.1c-4.2,0-7.3,1.3-9.5,3.8l-1.4-3.1h-5.6v33.7H49V32c0.8-1,1.9-1.9,3.1-2.4c1.1-0.6,2.4-0.9,3.7-1
			c2.5,0,4.3,0.7,5.4,2c1.1,1.3,1.6,3.4,1.6,6.3v19.4h7.8V35.7c0-4.3-1.1-7.7-3.5-10.1S61.7,22.1,57.7,22.1z"/>
		<path class="st1" d="M95.1,40.9c-1.3-1.7-3.4-3.1-6.3-4.2c-2.9-1.2-4.9-2.1-5.7-2.8c-0.9-0.7-1.3-1.4-1.3-2.3
			c0-2.2,1.4-3.3,4.1-3.3c3,0,5.4,0.7,7.1,2.2l2.3-6.1c-3-1.6-6.4-2.4-9.8-2.4c-3.4,0-6.3,0.8-8.5,2.4s-3.3,3.9-3.3,6.8
			c0,4.3,2.9,7.7,8.7,10.1c2.6,1.1,4.4,2.1,5.3,2.9c0.9,0.8,1.4,1.9,1.4,3.1c0,2.2-1.5,3.3-4.6,3.3c-2.9,0-5.7-1-7.9-2.8l-2.8,6.2
			c1.6,0.9,3.4,1.7,5.2,2.2c1.8,0.4,3.6,0.6,5.4,0.5c3.9,0,7.1-1,9.4-2.7c2.3-1.8,3.5-4.2,3.5-7.4C97.1,44.7,96.4,42.6,95.1,40.9z"
			/>
	</g>
</g>
</svg>
