<?xml version="1.0" encoding="utf-8"?>
<!-- Generator: Adobe Illustrator 28.2.0, SVG Export Plug-In . SVG Version: 6.00 Build 0)  -->
<svg version="1.1" id="Layer_1" xmlns="http://www.w3.org/2000/svg" xmlns:xlink="http://www.w3.org/1999/xlink" x="0px" y="0px"
	 viewBox="0 0 19 20" style="enable-background:new 0 0 19 20;" xml:space="preserve">
<style type="text/css">
	.st0{fill:#252525;}
</style>
<g id="App">
	<g id="Home">
		<path class="st0" d="M17,20H2c-0.5,0-1-0.2-1.4-0.6S0,18.5,0,18V8c0-0.6,0.3-1.2,0.8-1.6l7.5-5.7c0.7-0.5,1.7-0.5,2.4,0l7.5,5.7
			C18.7,6.8,19,7.4,19,8v10c0,0.5-0.2,1-0.6,1.4S17.5,20,17,20z M9.5,1.3c-0.2,0-0.4,0.1-0.6,0.2L1.4,7.2C1.1,7.4,1,7.7,1,8v10
			c0,0.3,0.1,0.5,0.3,0.7C1.5,18.9,1.7,19,2,19h15c0.3,0,0.5-0.1,0.7-0.3c0.2-0.2,0.3-0.4,0.3-0.7V8c0-0.3-0.1-0.6-0.4-0.8l-7.5-5.7
			C9.9,1.3,9.7,1.3,9.5,1.3z"/>
	</g>
</g>
</svg>
