<?xml version="1.0" encoding="utf-8"?>
<!-- Generator: Adobe Illustrator 28.2.0, SVG Export Plug-In . SVG Version: 6.00 Build 0)  -->
<svg version="1.1" id="Layer_1" xmlns="http://www.w3.org/2000/svg" xmlns:xlink="http://www.w3.org/1999/xlink" x="0px" y="0px"
	 viewBox="0 0 30 30" style="enable-background:new 0 0 30 30;" xml:space="preserve">
<style type="text/css">
	.st0{fill:#FFFFFF;}
</style>
<g id="App">
	<g id="_x31_9021594">
	</g>
	<g id="_x31_9021594_00000092429259145560572900000015551102113724861072_">
	</g>
</g>
<g>
	<polygon class="st0" points="11.4,15.5 7.6,15.5 7.6,16.6 8.9,16.6 8.9,23.4 10,23.4 10,16.6 11.4,16.6 	"/>
	<path class="st0" d="M14.6,11.1c0,0.2,0.2,0.3,0.4,0.3h0.2c0.1,0,0.2-0.1,0.2-0.4s0.1-0.8,0.1-1.7c0-0.1,0-0.3,0-0.4s0-0.3,0-0.5
		s0-0.3,0-0.5s0-0.3,0-0.5c0-0.1-0.1-0.1-0.2-0.1s-0.2-0.1-0.2-0.1s-0.2,0-0.2,0.1s-0.1,0.1-0.2,0.2c0,0.1,0,0.3,0,0.4s0,0.3,0,0.5
		s0,0.3,0,0.5s0,0.3,0,0.5C14.6,10.3,14.5,10.9,14.6,11.1z"/>
	<path class="st0" d="M28.8,9.2C28,7.4,27,5.8,25.6,4.4s-3-2.4-4.8-3.2C19,0.4,17.1,0,15,0s-4,0.4-5.8,1.2C7.3,2,5.7,3.1,4.4,4.4
		S2,7.4,1.2,9.2S0,12.9,0,15s0.4,4,1.2,5.9C2,22.7,3,24.3,4.4,25.6s3,2.4,4.8,3.2C11,29.6,12.9,30,15,30s4-0.4,5.8-1.2
		c1.8-0.8,3.4-1.9,4.8-3.2s2.4-2.9,3.2-4.8C29.6,19,30,17.1,30,15S29.6,11,28.8,9.2z M17.3,6.3h1.2v2.5c0,0.2,0,0.4-0.1,0.6
		s0,0.4,0,0.7c0,0.2,0,0.4,0,0.7s0,0.4,0.1,0.7c0.1,0,0.2,0,0.3,0s0.2-0.1,0.3-0.2l0.2-0.2V6.3h1.1v6h-1.1v-0.6L19,11.9
		c-0.1,0.1-0.2,0.1-0.2,0.2s-0.1,0.1-0.2,0.2c-0.1,0-0.2,0-0.2,0.1s-0.1,0-0.2,0s-0.2,0-0.2,0s-0.1,0-0.2-0.1
		c-0.1,0-0.1-0.1-0.1-0.1S17.5,12,17.4,12c0-0.1,0-0.3,0-0.6s-0.1-1.1-0.1-2.3V6.3z M14.4,6.4c0.2-0.1,0.4-0.1,0.6-0.1
		s0.4,0,0.6,0.1s0.4,0.2,0.5,0.4c0.2,0.2,0.3,0.4,0.3,0.7s0.1,0.9,0.1,1.8c0,0.2,0,0.3,0.1,0.5s0,0.4,0,0.5c0,0.2,0,0.4,0,0.6
		s0,0.4-0.1,0.5c-0.1,0.2-0.2,0.4-0.4,0.5s-0.4,0.3-0.6,0.4c-0.1,0-0.1,0-0.1,0s-0.1,0-0.1,0s-0.1,0-0.1,0s-0.1,0-0.1,0
		c-0.2,0-0.4,0-0.6-0.1s-0.4-0.2-0.5-0.4c-0.2-0.2-0.3-0.5-0.4-0.7s-0.1-0.9-0.1-1.9c0-1,0-1.6,0.1-1.9s0.2-0.5,0.4-0.7
		C14,6.6,14.2,6.5,14.4,6.4z M10.1,4.3c0,0,0.1,0,0.1,0s0.1,0,0.2,0s0.1,0,0.2,0s0.1,0,0.2,0c0.1,0,0.1,0.1,0.2,0.4s0.1,0.6,0.2,1.1
		c0.1,0.4,0.2,0.7,0.3,1s0.1,0.4,0.1,0.4c0,0,0.1-0.1,0.1-0.4s0.1-0.5,0.2-0.8l0.4-1.5V4.2h0.6c0.3,0,0.4,0,0.5,0s0.1,0,0.1,0
		l-0.7,2.5L12.1,9v3.3H11V9L9.5,4.3H10.1z M23.5,23.5c-0.2,0.9-0.6,1.4-1.2,1.8c-0.3,0.1-0.6,0.2-0.9,0.3s-0.6,0.1-1,0.1
		c-0.1,0-0.1,0-0.2,0s-0.1,0-0.1,0c-0.4,0-0.9,0-1.8,0c-0.8,0-1.7,0-2.6,0s-1.8,0-2.7,0s-1.6,0-2.1-0.1c-1.4,0-2.4-0.1-3-0.2
		s-1-0.5-1.3-0.9c-0.1-0.2-0.2-0.5-0.2-0.7S6.4,23.3,6.4,23c-0.1-0.6-0.1-1.2-0.1-1.8s-0.1-1.3-0.1-1.9c0-0.6,0-1.3,0.1-1.9
		s0.1-1.3,0.2-1.9c0.1-0.5,0.3-0.9,0.7-1.3s0.9-0.6,1.4-0.6c0.6-0.1,1.7-0.1,3.1-0.1s2.9,0,4.5,0c0.2,0,0.3,0,0.5,0s0.4,0,0.5,0
		c0.8,0,1.6,0,2.4,0.1s1.6,0.1,2.3,0.2c0.5,0.1,0.8,0.4,1.1,0.8s0.5,1.1,0.6,2c0,0.2,0,0.5,0,1s0,1,0,1.5
		C23.7,21.2,23.7,22.7,23.5,23.5z"/>
	<path class="st0" d="M22.5,21.3h-1.3v0.4c0,0.2,0,0.4,0,0.5s-0.1,0.2-0.2,0.2c0,0-0.1,0.1-0.1,0.1s-0.1,0-0.1,0
		c-0.1,0-0.2,0-0.2-0.1s-0.1-0.1-0.2-0.2c0-0.1,0-0.1,0-0.2s0-0.2,0-0.2s0-0.2,0-0.2s0-0.2,0-0.2v-0.7h2.1v-0.8c0-0.5,0-0.9-0.1-1.2
		s-0.2-0.5-0.4-0.7c-0.1-0.2-0.3-0.3-0.5-0.4s-0.4-0.1-0.6-0.1c0,0,0,0-0.1,0s0,0-0.1,0c-0.2,0-0.4,0-0.5,0.1s-0.3,0.2-0.5,0.3
		c-0.2,0.2-0.4,0.5-0.5,0.8s-0.1,1-0.1,2c0,0.1,0,0.1,0,0.2s0,0.2,0,0.3c0,0.2,0,0.5,0,0.7s0.1,0.5,0.1,0.7c0.1,0.2,0.2,0.3,0.3,0.5
		s0.3,0.2,0.5,0.3c0.1,0.1,0.2,0.1,0.4,0.1s0.3,0,0.4,0c0,0,0,0,0,0s0,0,0,0c0.1,0,0.2,0,0.4,0s0.2,0,0.4-0.1h0
		c0.3-0.1,0.5-0.3,0.7-0.5s0.2-0.5,0.2-0.8c0,0,0,0,0-0.1s0,0,0-0.1V21.3z M20.2,19.3c0-0.4,0.1-0.6,0.2-0.8s0.3-0.2,0.5-0.1
		c0.2,0,0.4,0.1,0.4,0.2s0,0.3,0,0.6v0.4h-1V19.3z"/>
	<path class="st0" d="M18.1,17.9c-0.1-0.2-0.2-0.3-0.3-0.4s-0.3-0.2-0.4-0.2c-0.2,0-0.3,0.1-0.5,0.1s-0.3,0.2-0.4,0.3L16.3,18v-2.5
		h-1.1v7.9h1.1v-0.5l0.2,0.2c0.1,0.1,0.1,0.1,0.2,0.2s0.1,0.1,0.2,0.1c0.1,0,0.2,0.1,0.2,0.1s0.2,0,0.2,0c0.1,0,0.2,0,0.3,0
		s0.2,0,0.2-0.1v0c0.1-0.1,0.1-0.1,0.2-0.2s0.1-0.1,0.1-0.2c0.1-0.2,0.1-0.3,0.1-0.5s0-0.7,0-1.7c0-0.9,0-1.6,0-2
		S18.3,18.1,18.1,17.9z M17.3,22.2l-0.1,0.1c-0.1,0.1-0.2,0.1-0.2,0.1s-0.2,0-0.3-0.1l-0.2-0.1v-3.6l0.3-0.1
		c0.1-0.1,0.2-0.1,0.2-0.1s0.1,0,0.2,0.1c0.1,0.1,0.1,0.2,0.2,0.4s0.1,0.8,0.1,1.7V22.2z"/>
	<path class="st0" d="M13.2,22l-0.4,0.3c-0.1,0.1-0.2,0.2-0.3,0.2s-0.1,0-0.2-0.1c-0.1-0.1-0.1-0.2-0.1-0.5s0.1-0.9,0.1-2v-2.5h-1.1
		V20c0,1.4,0,2.3,0,2.6s0.1,0.5,0.3,0.7c0.1,0,0.1,0.1,0.2,0.1s0.2,0,0.2,0c0.1,0,0.2,0,0.3,0s0.2,0,0.2-0.1s0.1-0.1,0.2-0.1
		s0.1-0.1,0.2-0.2l0.3-0.2v0.6h1.1v-5.9h-1V22z"/>
</g>
</svg>
