<?xml version="1.0" encoding="UTF-8"?>
<svg width="30px" height="31px" viewBox="0 0 30 31" version="1.1" xmlns="http://www.w3.org/2000/svg" xmlns:xlink="http://www.w3.org/1999/xlink">
    <title>Facebook</title>
    <g id="App" stroke="none" stroke-width="1" fill="none" fill-rule="evenodd">
        <g id="19021594"></g>
        <g id="19021594"></g>
        <g id="Facebook" transform="translate(0, 0.2773)" fill="#FFFFFF" fill-rule="nonzero">
            <path d="M15,0 C12.9296875,0 10.9863281,0.400390625 9.16992188,1.20117188 C7.33398438,1.98242188 5.73730469,3.05175781 4.37988281,4.40917969 C3.02246094,5.76660156 1.953125,7.35351562 1.171875,9.16992188 C0.390625,10.9863281 0,12.9296875 0,15 C0,17.0703125 0.390625,19.0234375 1.171875,20.859375 C1.953125,22.6757812 3.02246094,24.2626953 4.37988281,25.6201172 C5.73730469,26.9775391 7.33398438,28.046875 9.16992188,28.828125 C10.9863281,29.609375 12.9296875,30 15,30 C17.0703125,30 19.0136719,29.609375 20.8300781,28.828125 C22.6660156,28.046875 24.2626953,26.9775391 25.6201172,25.6201172 C26.9775391,24.2626953 28.046875,22.6757812 28.828125,20.859375 C29.609375,19.0234375 30,17.0703125 30,15 C30,14.0039062 29.9023438,13.0273438 29.7070312,12.0703125 C29.5117188,11.1132812 29.2285156,10.1806641 28.8574219,9.27246094 C28.4863281,8.36425781 28.0273438,7.5 27.4804688,6.6796875 C26.9335938,5.859375 26.3085938,5.09765625 25.6054688,4.39453125 C24.9023438,3.69140625 24.140625,3.06640625 23.3203125,2.51953125 C22.5,1.97265625 21.640625,1.51367188 20.7421875,1.14257812 C19.84375,0.771484375 18.90625,0.48828125 17.9296875,0.29296875 C16.9726562,0.09765625 15.9960938,0 15,0 Z M19.4238281,9.19921875 L17.4902344,9.19921875 C17.3925781,9.19921875 17.2949219,9.20898438 17.1972656,9.22851562 C17.0996094,9.24804688 17.0019531,9.27734375 16.9042969,9.31640625 C16.8261719,9.3359375 16.7431641,9.37011719 16.6552734,9.41894531 C16.5673828,9.46777344 16.4941406,9.53125 16.4355469,9.609375 C16.3964844,9.66796875 16.3623047,9.73144531 16.3330078,9.79980469 C16.3037109,9.86816406 16.2792969,9.94140625 16.2597656,10.0195312 C16.2207031,10.0976562 16.1962891,10.1806641 16.1865234,10.2685547 C16.1767578,10.3564453 16.171875,10.4492188 16.171875,10.546875 L16.171875,12.65625 L19.3652344,12.65625 L18.9550781,15.7617188 L16.1132812,15.7617188 L16.1132812,23.7597656 L12.7734375,23.7597656 L12.7734375,15.8203125 L9.99023438,15.8203125 L9.99023438,12.6855469 L12.7734375,12.6855469 L12.7734375,10.1074219 C12.7734375,9.59960938 12.8710938,9.10644531 13.0664062,8.62792969 C13.2617188,8.14941406 13.5449219,7.72460938 13.9160156,7.35351562 C14.0917969,7.17773438 14.2871094,7.02636719 14.5019531,6.89941406 C14.7167969,6.77246094 14.9414062,6.66015625 15.1757812,6.5625 C15.4296875,6.46484375 15.6933594,6.38671875 15.9667969,6.328125 C16.2402344,6.26953125 16.5136719,6.25 16.7871094,6.26953125 L17.0507812,6.26953125 C17.265625,6.26953125 17.4755859,6.26953125 17.6806641,6.26953125 C17.8857422,6.26953125 18.0957031,6.26953125 18.3105469,6.26953125 L19.4238281,6.35742188 L19.4238281,9.19921875 Z" id="Shape"></path>
        </g>
    </g>
</svg>