<?xml version="1.0" encoding="UTF-8"?>
<svg width="220px" height="170px" viewBox="0 0 220 170" version="1.1" xmlns="http://www.w3.org/2000/svg" xmlns:xlink="http://www.w3.org/1999/xlink">
    <title>Group</title>
    <g id="App" stroke="none" stroke-width="1" fill="none" fill-rule="evenodd">
        <g id="19021594"></g>
        <g id="19021594"></g>
        <g id="Group" transform="translate(0, 0.3611)" fill="#A5181B" fill-rule="nonzero">
            <path d="M0,169.02439 L0,149.248724 C11.8599989,149.248724 19.8811492,147.844535 24.0634509,145.036156 C28.2457525,142.227777 30.3369033,137.187431 30.3369033,129.915117 L30.3369033,55.0770268 L13.1599035,55.0770268 L13.1599035,36.8095638 L52.5744013,36.8095638 L52.5744013,129.56407 C52.5744013,143.163903 48.2877595,153.131914 39.7144758,159.468102 C31.1411921,165.804289 17.9030335,168.989719 0,169.02439 Z M40.7448349,0.00160105119 C44.1800389,-0.0534134026 47.4848705,1.31145149 49.8745995,3.77210943 C52.342973,6.15436868 53.7121175,9.44887015 53.6569305,12.8733365 C53.7121175,16.2978029 52.342973,19.5923044 49.8745995,21.9745636 C47.4565569,24.3945889 44.1712378,25.7549498 40.7448349,25.7549498 C37.3184321,25.7549498 34.033113,24.3945889 31.6150704,21.9745636 C29.1453764,19.5931997 27.7759836,16.2981008 27.8327394,12.8733365 C27.7775524,9.44887015 29.1466969,6.15436868 31.6150704,3.77210943 C34.0047994,1.31145149 37.3096309,-0.0534134026 40.7448349,0.00160105119 Z" id="Shape"></path>
            <path d="M123.679931,130.569106 L123.679931,75.8092898 C123.679931,67.7313197 122.129149,61.8328447 119.027584,58.1138648 C115.926019,54.394885 110.857819,52.5353951 103.822984,52.5353951 C100.19246,52.635258 96.6342809,53.5721247 93.4266771,55.2727372 C90.0233751,56.831926 87.0327045,59.1643963 84.693779,62.0836596 L84.693779,130.569106 L62.601626,130.569106 L62.601626,35.7480931 L78.5209715,35.7480931 L82.6015221,44.5958056 C88.6660347,37.5210951 97.5592092,33.9837398 109.281046,33.9837398 C120.543712,33.9837398 129.449882,37.3610925 135.999555,44.1157977 C142.549229,50.8705029 145.806738,60.3106576 145.772358,72.4362616 L145.772358,130.569106 L123.679931,130.569106 Z" id="Path"></path>
            <path d="M154.105295,124.462203 L161.945452,106.857041 C168.237675,112.008099 176.121753,114.793085 184.238877,114.73201 C192.849702,114.73201 197.155115,111.665918 197.155115,105.533734 C197.24977,102.149989 195.827449,98.9022212 193.280244,96.6857454 C190.696996,94.3850953 185.676885,91.6736149 178.219911,88.551304 C161.954062,81.7704406 153.821138,72.2564741 153.821138,60.0094044 C153.821138,51.810095 156.933951,45.4227639 163.159578,40.8474109 C169.385204,36.2720579 177.341607,33.9837398 187.028785,33.9837398 C196.647652,33.9398139 206.136303,36.217947 214.695365,40.6268598 L208.263079,57.7909204 C203.449628,53.6653185 196.754712,51.6025176 188.17833,51.6025176 C180.480252,51.6025176 176.635519,54.6686095 176.64413,60.8007934 C176.64413,63.2225304 177.905616,65.3847955 180.428587,67.2875888 C182.951559,69.1903821 188.354852,71.7851003 196.638465,75.0717432 C204.922079,78.3497372 210.885075,82.3153314 214.527454,86.968526 C218.219987,91.7949106 220.148914,97.7493775 219.991023,103.834194 C219.991023,112.621639 216.744742,119.540888 210.25218,124.591939 C203.759618,129.64299 194.946438,132.224735 183.812642,132.337173 C178.730417,132.47084 173.652003,131.952024 168.700644,130.793315 C163.623426,129.215168 158.730114,127.092566 154.105295,124.462203 L154.105295,124.462203 Z" id="Path"></path>
            <g id="Jewish-News-Syndicat" transform="translate(62.0283, 150.3216)">
                <path d="M0,7.84048685 L1.14627001,7.84048685 C1.25107184,8.42126366 1.5982279,8.71165206 2.18773819,8.71165206 C2.77288173,8.71165206 3.18444725,8.5861082 3.42243474,8.33502048 C3.66042222,8.08393277 3.77941597,7.38197885 3.77941597,6.22915873 L3.77941597,0.163752858 L5.08943883,0.163752858 L5.08943883,6.17675781 C5.08943883,7.48678068 4.8776518,8.4332722 4.45407774,9.01623237 C4.03050368,9.59919255 3.27724054,9.89067264 2.1942883,9.89067264 C1.56984407,9.89067264 1.05784346,9.70508606 0.65828649,9.33391292 C0.258729516,8.96273977 0.039300686,8.46493108 0,7.84048685 Z" id="Path"></path>
                <polygon id="Path" points="8.63278868 1.34277344 8.63278868 4.00866997 11.803044 4.00866997 11.803044 5.12218941 8.63278868 5.12218941 8.63278868 8.58064977 12.9820646 8.58064977 12.9820646 9.75967035 7.32276582 9.75967035 7.32276582 0.163752858 13.0541159 0.163752858 13.0541159 1.34277344"></polygon>
                <polygon id="Path" points="22.1519627 9.89067264 21.7393054 9.89067264 19.4533155 3.27505716 17.3179783 9.89067264 16.9053211 9.89067264 13.8791683 0.163752858 15.241592 0.163752858 17.1673256 6.86451982 19.2764625 0.163752858 19.7349705 0.163752858 21.8179068 6.85141959 23.776391 0.163752858 25.1388148 0.163752858"></polygon>
                <polygon id="Path" points="26.7040301 9.75967035 26.7040301 0.163752858 28.014053 0.163752858 28.014053 9.75967035"></polygon>
                <path d="M30.0443264,9.32081269 L30.5224848,8.11559165 C30.7670224,8.29462811 31.0716027,8.44418906 31.4362257,8.56427449 C31.8008487,8.68435991 32.1272628,8.74440263 32.4154678,8.74440263 C32.9263767,8.74440263 33.3368505,8.60466686 33.6468893,8.32519531 C33.956928,8.04572377 34.1119474,7.68983422 34.1119474,7.25752668 C34.1119474,6.9343877 34.0257042,6.63417413 33.8532179,6.35688596 C33.6807315,6.07959778 33.2473323,5.77720084 32.5530202,5.44969512 L31.7801067,5.08943883 C31.1250953,4.78376683 30.667679,4.42132717 30.4078578,4.00211986 C30.1480366,3.58291254 30.018126,3.07855373 30.018126,2.48904345 C30.018126,1.77289761 30.271397,1.17902058 30.7779392,0.707412348 C31.2844814,0.235804116 31.9351261,0 32.7298733,0 C33.7909918,0 34.5289714,0.172486344 34.9438119,0.517459032 L34.5573552,1.65717893 C34.3826855,1.53054338 34.1163142,1.40827458 33.7582412,1.29037252 C33.4001683,1.17247046 33.0682959,1.11351944 32.7626239,1.11351944 C32.3172161,1.11351944 31.966785,1.24015498 31.7113305,1.49342607 C31.455876,1.74669715 31.3281488,2.0720195 31.3281488,2.4693931 C31.3281488,2.7139307 31.3739996,2.93663459 31.4657012,3.13750476 C31.5574028,3.33837494 31.68513,3.50649454 31.8488829,3.64186357 C32.0126358,3.7772326 32.3477833,3.96718591 32.8543255,4.21172351 L33.6403392,4.58508003 C34.2953506,4.89511878 34.7549503,5.26520024 35.0191382,5.69532441 C35.2833262,6.12544858 35.4154202,6.67238313 35.4154202,7.33612805 C35.4154202,8.05664063 35.1261234,8.66798463 34.54753,9.17016006 C33.9689366,9.67233549 33.1949314,9.92342321 32.2255145,9.92342321 C31.3739996,9.92342321 30.6469369,9.72255304 30.0443264,9.32081269 Z" id="Path"></path>
                <polygon id="Path" points="42.6988853 9.75967035 42.6988853 5.12218941 38.5068121 5.12218941 38.5068121 9.75967035 37.1967893 9.75967035 37.1967893 0.163752858 38.5068121 0.163752858 38.5068121 4.00866997 42.6988853 4.00866997 42.6988853 0.163752858 44.0089082 0.163752858 44.0089082 9.75967035"></polygon>
                <polygon id="Path" points="56.7549066 9.89067264 51.7964701 2.87550019 51.7964701 9.75967035 50.5519484 9.75967035 50.5519484 0.163752858 51.0759575 0.163752858 55.9033918 6.79901867 55.9033918 0.163752858 57.1479135 0.163752858 57.1479135 9.89067264"></polygon>
                <polygon id="Path" points="60.6912633 1.34277344 60.6912633 4.00866997 63.8615187 4.00866997 63.8615187 5.12218941 60.6912633 5.12218941 60.6912633 8.58064977 65.0405393 8.58064977 65.0405393 9.75967035 59.3812405 9.75967035 59.3812405 0.163752858 65.1125905 0.163752858 65.1125905 1.34277344"></polygon>
                <polygon id="Path" points="74.2104373 9.89067264 73.7977801 9.89067264 71.5117902 3.27505716 69.3764529 9.89067264 68.9637957 9.89067264 65.9376429 0.163752858 67.3000667 0.163752858 69.2258003 6.86451982 71.3349371 0.163752858 71.7934451 0.163752858 73.8763815 6.85141959 75.8348657 0.163752858 77.1972894 0.163752858"></polygon>
                <path d="M78.1009432,9.32081269 L78.5791016,8.11559165 C78.8236392,8.29462811 79.1282195,8.44418906 79.4928425,8.56427449 C79.8574655,8.68435991 80.1838796,8.74440263 80.4720846,8.74440263 C80.9829935,8.74440263 81.3934674,8.60466686 81.7035061,8.32519531 C82.0135448,8.04572377 82.1685642,7.68983422 82.1685642,7.25752668 C82.1685642,6.9343877 82.082321,6.63417413 81.9098347,6.35688596 C81.7373484,6.07959778 81.3039491,5.77720084 80.609637,5.44969512 L79.8367235,5.08943883 C79.1817121,4.78376683 78.7242958,4.42132717 78.4644746,4.00211986 C78.2046534,3.58291254 78.0747428,3.07855373 78.0747428,2.48904345 C78.0747428,1.77289761 78.3280138,1.17902058 78.834556,0.707412348 C79.3410982,0.235804116 79.9917429,0 80.7864901,0 C81.8476086,0 82.5855882,0.172486344 83.0004287,0.517459032 L82.613972,1.65717893 C82.4393023,1.53054338 82.172931,1.40827458 81.814858,1.29037252 C81.4567851,1.17247046 81.1249127,1.11351944 80.8192407,1.11351944 C80.3738329,1.11351944 80.0234018,1.24015498 79.7679473,1.49342607 C79.5124929,1.74669715 79.3847656,2.0720195 79.3847656,2.4693931 C79.3847656,2.7139307 79.4306164,2.93663459 79.522318,3.13750476 C79.6140196,3.33837494 79.7417469,3.50649454 79.9054997,3.64186357 C80.0692526,3.7772326 80.4044001,3.96718591 80.9109423,4.21172351 L81.696956,4.58508003 C82.3519674,4.89511878 82.8115671,5.26520024 83.075755,5.69532441 C83.339943,6.12544858 83.472037,6.67238313 83.472037,7.33612805 C83.472037,8.05664063 83.1827403,8.66798463 82.6041468,9.17016006 C82.0255534,9.67233549 81.2515482,9.92342321 80.2821313,9.92342321 C79.4306164,9.92342321 78.7035537,9.72255304 78.1009432,9.32081269 Z" id="Path"></path>
                <path d="M89.1308117,9.32081269 L89.6089701,8.11559165 C89.8535077,8.29462811 90.158088,8.44418906 90.522711,8.56427449 C90.8873341,8.68435991 91.2137481,8.74440263 91.5019531,8.74440263 C92.012862,8.74440263 92.4233359,8.60466686 92.7333746,8.32519531 C93.0434134,8.04572377 93.1984327,7.68983422 93.1984327,7.25752668 C93.1984327,6.9343877 93.1121896,6.63417413 92.9397032,6.35688596 C92.7672169,6.07959778 92.3338176,5.77720084 91.6395055,5.44969512 L90.866592,5.08943883 C90.2115806,4.78376683 89.7541643,4.42132717 89.4943431,4.00211986 C89.2345219,3.58291254 89.1046113,3.07855373 89.1046113,2.48904345 C89.1046113,1.77289761 89.3578824,1.17902058 89.8644245,0.707412348 C90.3709667,0.235804116 91.0216114,0 91.8163586,0 C92.8774771,0 93.6154567,0.172486344 94.0302973,0.517459032 L93.6438405,1.65717893 C93.4691708,1.53054338 93.2027995,1.40827458 92.8447266,1.29037252 C92.4866536,1.17247046 92.1547812,1.11351944 91.8491092,1.11351944 C91.4037014,1.11351944 91.0532703,1.24015498 90.7978158,1.49342607 C90.5423614,1.74669715 90.4146341,2.0720195 90.4146341,2.4693931 C90.4146341,2.7139307 90.4604849,2.93663459 90.5521865,3.13750476 C90.6438881,3.33837494 90.7716154,3.50649454 90.9353682,3.64186357 C91.0991211,3.7772326 91.4342686,3.96718591 91.9408108,4.21172351 L92.7268245,4.58508003 C93.3818359,4.89511878 93.8414356,5.26520024 94.1056236,5.69532441 C94.3698115,6.12544858 94.5019055,6.67238313 94.5019055,7.33612805 C94.5019055,8.05664063 94.2126088,8.66798463 93.6340153,9.17016006 C93.0554219,9.67233549 92.2814167,9.92342321 91.3119998,9.92342321 C90.4604849,9.92342321 89.7334223,9.72255304 89.1308117,9.32081269 Z" id="Path"></path>
                <polygon id="Path" points="99.7875857 5.46279535 99.7875857 9.75967035 98.4775629 9.75967035 98.4775629 5.46279535 95.3859089 0.163752858 96.7352325 0.163752858 99.1260242 4.35582603 101.516816 0.163752858 102.866139 0.163752858"></polygon>
                <polygon id="Path" points="110.405059 9.89067264 105.446623 2.87550019 105.446623 9.75967035 104.202101 9.75967035 104.202101 0.163752858 104.72611 0.163752858 109.553544 6.79901867 109.553544 0.163752858 110.798066 0.163752858 110.798066 9.89067264"></polygon>
                <path d="M114.963677,9.75967035 L113.031393,9.75967035 L113.031393,0.163752858 C114.262814,0.120085429 115.051011,0.0982517149 115.395984,0.0982517149 C116.736574,0.0982517149 117.797693,0.505450489 118.57934,1.31984804 C119.360987,2.13424559 119.75181,3.21828951 119.75181,4.5719798 C119.75181,8.03044017 118.155766,9.75967035 114.963677,9.75967035 Z M114.341416,1.34277344 L114.341416,8.51514863 C114.633988,8.55881606 114.996427,8.58064977 115.428735,8.58064977 C116.345751,8.58064977 117.066263,8.23676877 117.590272,7.54900676 C118.114282,6.86124476 118.376286,5.90601975 118.376286,4.68333175 C118.376286,2.41262544 117.356652,1.27727229 115.317383,1.27727229 C115.195114,1.27727229 114.869792,1.29910601 114.341416,1.34277344 Z" id="Shape"></path>
                <polygon id="Path" points="121.755883 9.75967035 121.755883 0.163752858 123.065906 0.163752858 123.065906 9.75967035"></polygon>
                <path d="M131.652844,0.517459032 L131.213986,1.63752858 C130.794779,1.33185658 130.135401,1.17902058 129.235852,1.17902058 C128.39307,1.17902058 127.717317,1.54146024 127.208591,2.26633956 C126.699866,2.99121888 126.445503,3.92570185 126.445503,5.06978849 C126.445503,6.16147421 126.706416,7.04683133 127.228242,7.72585985 C127.750067,8.40488837 128.423638,8.74440263 129.248952,8.74440263 C130.148501,8.74440263 130.84063,8.4256304 131.325338,7.78808594 L132.045851,8.79025343 C131.286038,9.54569995 130.307887,9.92342321 129.1114,9.92342321 C127.858144,9.92342321 126.87126,9.47146532 126.150748,8.56754954 C125.430235,7.66363377 125.069979,6.47151296 125.069979,4.99118712 C125.069979,3.55889545 125.454252,2.36895802 126.222799,1.42137481 C126.991346,0.473791603 127.98478,0 129.203101,0 C130.246753,0 131.063334,0.172486344 131.652844,0.517459032 Z" id="Path"></path>
                <path d="M139.270365,9.75967035 L138.608803,7.73568502 L135.038991,7.73568502 L134.331579,9.75967035 L132.864353,9.75967035 L136.761671,0.0327505716 L137.108827,0.0327505716 L140.72449,9.75967035 L139.270365,9.75967035 Z M136.873023,2.54799447 L135.386147,6.77281822 L138.235447,6.77281822 L136.873023,2.54799447 Z" id="Shape"></path>
                <polygon id="Path" points="145.499262 1.34277344 145.499262 9.75967035 144.189239 9.75967035 144.189239 1.34277344 141.136885 1.34277344 141.136885 0.163752858 148.689167 0.163752858 148.689167 1.34277344"></polygon>
                <polygon id="Path" points="151.367902 1.34277344 151.367902 4.00866997 154.538157 4.00866997 154.538157 5.12218941 151.367902 5.12218941 151.367902 8.58064977 155.717178 8.58064977 155.717178 9.75967035 150.057879 9.75967035 150.057879 0.163752858 155.789229 0.163752858 155.789229 1.34277344"></polygon>
            </g>
        </g>
    </g>
</svg>