<?xml version="1.0" encoding="utf-8"?>
<!-- Generator: Adobe Illustrator 28.2.0, SVG Export Plug-In . SVG Version: 6.00 Build 0)  -->
<svg version="1.1" id="Layer_1" xmlns="http://www.w3.org/2000/svg" xmlns:xlink="http://www.w3.org/1999/xlink" x="0px" y="0px"
	 viewBox="0 0 18 20" style="enable-background:new 0 0 18 20;" xml:space="preserve">
<style type="text/css">
	.st0{fill:#252525;}
</style>
<g>
	<path class="st0" d="M16.5,1h-15C0.7,1,0,1.7,0,2.5v16C0,19.3,0.7,20,1.5,20h15c0.8,0,1.5-0.7,1.5-1.5v-16C18,1.7,17.3,1,16.5,1z
		 M17,18.5c0,0.3-0.2,0.5-0.5,0.5h-15C1.2,19,1,18.8,1,18.5v-16C1,2.2,1.2,2,1.5,2h15C16.8,2,17,2.2,17,2.5V18.5z"/>
	<path class="st0" d="M4,10h10V5H4V10z M5,6h8v3H5V6z"/>
	<rect x="4" y="12" class="st0" width="10" height="1"/>
	<rect x="4" y="15" class="st0" width="10" height="1"/>
</g>
</svg>
