<?xml version="1.0" encoding="UTF-8"?>
<svg id="Layer_1" data-name="Layer 1" xmlns="http://www.w3.org/2000/svg" version="1.1" viewBox="0 0 23 16">
  <defs>
    <style>
      .cls-1 {
        fill: #252525;
        stroke-width: 0px;
      }
    </style>
  </defs>
  <path class="cls-1" d="M22.1,3.6c-.5-.2-1.1-.2-1.5.2l-2.6,1.4V1.5c0-.8-.7-1.5-1.5-1.5H1.5C.7,0,0,.7,0,1.5v13c0,.8.7,1.5,1.5,1.5h15c.8,0,1.5-.7,1.5-1.5v-3.7l2.6,1.4c.3.2.6.3.9.3s.4,0,.6-.1c.5-.3.9-.8.9-1.4v-6c0-.6-.3-1.1-.9-1.4ZM17,14.5c0,.3-.2.5-.5.5H1.5c-.3,0-.5-.2-.5-.5V1.5c0-.3.2-.5.5-.5h15c.3,0,.5.2.5.5v13ZM22,11c0,.2-.1.4-.3.5,0,0-.3.1-.5,0,0,0,0,0,0,0l-3.1-1.6v-3.4l3.1-1.6s0,0,0,0c.2-.2.4-.1.5,0,.2,0,.3.3.3.5v6Z"/>
</svg>