<?xml version="1.0" encoding="utf-8"?>
<!-- Generator: Adobe Illustrator 28.2.0, SVG Export Plug-In . SVG Version: 6.00 Build 0)  -->
<svg version="1.1" id="Layer_1" xmlns="http://www.w3.org/2000/svg" xmlns:xlink="http://www.w3.org/1999/xlink" x="0px" y="0px"
	 viewBox="0 0 25 27" style="enable-background:new 0 0 25 27;" xml:space="preserve">
<style type="text/css">
	.st0{fill:#282828;}
	.st1{fill:#252525;}
</style>
<g id="App_00000043422454631163506700000017002359670987611310_">
	<g id="User" transform="translate(2, 2)">
		<g id="Path">
			<path class="st1" d="M10.5,12C6.9,12,4,9.1,4,5.5S6.9-1,10.5-1S17,1.9,17,5.5S14.1,12,10.5,12z M10.5,2C8.6,2,7,3.6,7,5.5
				S8.6,9,10.5,9S14,7.4,14,5.5S12.4,2,10.5,2z"/>
		</g>
		<g id="Path_00000034783065034244103510000015363453101710174104_">
			<path class="st1" d="M18.8,25H2.2C-0.1,25-2,23.1-2,20.7v-0.5c0-3.9,3.1-7.1,7-7.1h11c3.9,0,7,3.2,7,7.1v0.5
				C23,23.1,21.1,25,18.8,25z M5,16c-2.2,0-4,1.9-4,4.1v0.5C1,21.4,1.6,22,2.2,22h16.5c0.7,0,1.2-0.6,1.2-1.3v-0.5
				c0-2.3-1.8-4.1-4-4.1H5z"/>
		</g>
	</g>
</g>
</svg>
