<?xml version="1.0" encoding="UTF-8"?>
<svg width="30px" height="31px" viewBox="0 0 30 31" version="1.1" xmlns="http://www.w3.org/2000/svg" xmlns:xlink="http://www.w3.org/1999/xlink">
    <title>Linkdin</title>
    <g id="App" stroke="none" stroke-width="1" fill="none" fill-rule="evenodd">
        <g id="19021594"></g>
        <g id="19021594"></g>
        <path d="M15,0.27734375 C12.9296875,0.27734375 10.9863281,0.677734375 9.16992188,1.47851562 C7.33398438,2.25976562 5.73730469,3.32910156 4.37988281,4.68652344 C3.02246094,6.04394531 1.953125,7.63085938 1.171875,9.44726562 C0.390625,11.2636719 0,13.2070312 0,15.2773438 C0,17.3476562 0.390625,19.3007812 1.171875,21.1367188 C1.953125,22.953125 3.02246094,24.5400391 4.37988281,25.8974609 C5.73730469,27.2548828 7.33398438,28.3242188 9.16992188,29.1054688 C10.9863281,29.8867188 12.9296875,30.2773438 15,30.2773438 C17.0703125,30.2773438 19.0136719,29.8867188 20.8300781,29.1054688 C22.6660156,28.3242188 24.2626953,27.2548828 25.6201172,25.8974609 C26.9775391,24.5400391 28.046875,22.953125 28.828125,21.1367188 C29.609375,19.3007812 30,17.3476562 30,15.2773438 C30,13.2070312 29.609375,11.2636719 28.828125,9.44726562 C28.046875,7.63085938 26.9775391,6.04394531 25.6201172,4.68652344 C24.2626953,3.32910156 22.6660156,2.25976562 20.8300781,1.47851562 C19.0136719,0.677734375 17.0703125,0.27734375 15,0.27734375 Z M10.7226562,21.7226562 L7.35351562,21.7226562 L7.35351562,11.5859375 L10.7226562,11.5859375 L10.7226562,21.7226562 Z M9.05273438,10.1796875 L9.05273438,10.1796875 C9.01367188,10.1992188 8.96972656,10.2089844 8.92089844,10.2089844 C8.87207031,10.2089844 8.828125,10.2089844 8.7890625,10.2089844 C8.30078125,10.2089844 7.88574219,10.0380859 7.54394531,9.69628906 C7.20214844,9.35449219 7.03125,8.93945312 7.03125,8.45117188 C7.03125,7.96289062 7.20214844,7.54785156 7.54394531,7.20605469 C7.88574219,6.86425781 8.30078125,6.69335938 8.7890625,6.69335938 C8.828125,6.69335938 8.87207031,6.69335938 8.92089844,6.69335938 C8.96972656,6.69335938 9.0234375,6.703125 9.08203125,6.72265625 C9.1015625,6.72265625 9.12597656,6.71777344 9.15527344,6.70800781 C9.18457031,6.69824219 9.21875,6.69335938 9.2578125,6.69335938 C9.74609375,6.69335938 10.1611328,6.86425781 10.5029297,7.20605469 C10.8447266,7.54785156 11.015625,7.96289062 11.015625,8.45117188 C11.015625,8.93945312 10.8447266,9.35449219 10.5029297,9.69628906 C10.1611328,10.0380859 9.74609375,10.2089844 9.2578125,10.2089844 C9.21875,10.2089844 9.18457031,10.2089844 9.15527344,10.2089844 C9.12597656,10.2089844 9.09179688,10.2089844 9.05273438,10.2089844 L9.05273438,10.1796875 Z M23.0566406,21.7226562 L19.6875,21.7226562 L19.6875,16.2734375 C19.6875,15.5898438 19.5556641,15.0380859 19.2919922,14.6181641 C19.0283203,14.1982422 18.59375,13.9882812 17.9882812,13.9882812 C17.578125,13.9882812 17.2167969,14.1103516 16.9042969,14.3544922 C16.5917969,14.5986328 16.3769531,14.90625 16.2597656,15.2773438 C16.2207031,15.3945312 16.1914062,15.5117188 16.171875,15.6289062 C16.1523438,15.7460938 16.1425781,15.8632812 16.1425781,15.9804688 C16.1425781,16 16.1425781,16.0195312 16.1425781,16.0390625 C16.1425781,16.0585938 16.1523438,16.078125 16.171875,16.0976562 L16.1425781,21.7226562 L12.8613281,21.7226562 C12.8613281,21.7226562 12.8613281,21.234375 12.8613281,20.2578125 C12.8613281,19.3007812 12.8613281,18.2167969 12.8613281,17.0058594 C12.8613281,15.7949219 12.8613281,14.6425781 12.8613281,13.5488281 C12.8613281,12.4746094 12.8613281,11.8203125 12.8613281,11.5859375 L16.1425781,11.5859375 L16.1425781,13.0214844 C16.4550781,12.5136719 16.8652344,12.1035156 17.3730469,11.7910156 C17.8808594,11.4785156 18.4375,11.3222656 19.0429688,11.3222656 C19.1015625,11.3222656 19.1503906,11.3271484 19.1894531,11.3369141 C19.2285156,11.3466797 19.2675781,11.3515625 19.3066406,11.3515625 C20.3613281,11.3515625 21.2695312,11.7177734 22.03125,12.4501953 C22.7929688,13.1826172 23.1738281,14.3300781 23.1738281,15.8925781 L23.0566406,21.7226562 Z" id="Linkdin" fill="#FFFFFF" fill-rule="nonzero"></path>
    </g>
</svg>