<?xml version="1.0" encoding="UTF-8"?>
<svg width="30px" height="31px" viewBox="0 0 30 31" version="1.1" xmlns="http://www.w3.org/2000/svg" xmlns:xlink="http://www.w3.org/1999/xlink">
    <title>RSS</title>
    <g id="App" stroke="none" stroke-width="1" fill="none" fill-rule="evenodd">
        <g id="19021594"></g>
        <g id="19021594"></g>
        <path d="M15,0.27734375 C12.9296875,0.27734375 10.9863281,0.677734375 9.16992188,1.47851562 C7.33398438,2.25976562 5.73730469,3.32910156 4.37988281,4.68652344 C3.02246094,6.04394531 1.953125,7.63085938 1.171875,9.44726562 C0.390625,11.2636719 0,13.2070312 0,15.2773438 C0,17.3476562 0.390625,19.3007812 1.171875,21.1367188 C1.953125,22.953125 3.02246094,24.5400391 4.37988281,25.8974609 C5.73730469,27.2548828 7.33398438,28.3242188 9.16992188,29.1054688 C10.9863281,29.8867188 12.9296875,30.2773438 15,30.2773438 C17.0703125,30.2773438 19.0136719,29.8867188 20.8300781,29.1054688 C22.6660156,28.3242188 24.2626953,27.2548828 25.6201172,25.8974609 C26.9775391,24.5400391 28.046875,22.953125 28.828125,21.1367188 C29.609375,19.3007812 30,17.3476562 30,15.2773438 C30,13.2070312 29.609375,11.2636719 28.828125,9.44726562 C28.046875,7.63085938 26.9775391,6.04394531 25.6201172,4.68652344 C24.2626953,3.32910156 22.6660156,2.25976562 20.8300781,1.47851562 C19.0136719,0.677734375 17.0703125,0.27734375 15,0.27734375 Z M12.1582031,21.7226562 L8.58398438,21.7226562 L8.58398438,18.1484375 C8.72070312,18.0898438 8.8671875,18.0458984 9.0234375,18.0166016 C9.1796875,17.9873047 9.34570312,17.9726562 9.52148438,17.9726562 C10.2832031,17.9726562 10.9423828,18.2460938 11.4990234,18.7929688 C12.0556641,19.3398438 12.3339844,20.0039062 12.3339844,20.7851562 C12.3339844,20.9414062 12.3144531,21.1025391 12.2753906,21.2685547 C12.2363281,21.4345703 12.1972656,21.5859375 12.1582031,21.7226562 Z M17.8417969,21.7226562 L14.0917969,21.7226562 C14.1308594,21.5859375 14.1552734,21.4345703 14.1650391,21.2685547 C14.1748047,21.1025391 14.1796875,20.9414062 14.1796875,20.7851562 C14.1796875,19.4960938 13.7255859,18.3925781 12.8173828,17.4746094 C11.9091797,16.5566406 10.8007812,16.0976562 9.4921875,16.0976562 C9.3359375,16.0976562 9.17480469,16.1074219 9.00878906,16.1269531 C8.84277344,16.1464844 8.69140625,16.1660156 8.5546875,16.1855469 L8.58398438,12.4941406 C8.64257812,12.4941406 8.7109375,12.4941406 8.7890625,12.4941406 C8.8671875,12.4941406 8.95507812,12.4941406 9.05273438,12.4941406 C9.13085938,12.4941406 9.20898438,12.4941406 9.28710938,12.4941406 C9.36523438,12.4941406 9.453125,12.4941406 9.55078125,12.4941406 C9.53125,12.4941406 9.52148438,12.4941406 9.52148438,12.4941406 C9.52148438,12.4941406 9.52148438,12.4941406 9.52148438,12.4941406 C10.6738281,12.4941406 11.7578125,12.71875 12.7734375,13.1679688 C13.7890625,13.5976562 14.6826172,14.1884766 15.4541016,14.9404297 C16.2255859,15.6923828 16.8261719,16.5761719 17.2558594,17.5917969 C17.7050781,18.6074219 17.9394531,19.6914062 17.9589844,20.84375 C17.9394531,21.0195312 17.9199219,21.1806641 17.9003906,21.3271484 C17.8808594,21.4736328 17.8613281,21.6152344 17.8417969,21.7519531 L17.8417969,21.7226562 Z M23.5839844,21.7226562 L19.7753906,21.7226562 C19.7753906,21.5859375 19.7753906,21.4443359 19.7753906,21.2978516 C19.7753906,21.1513672 19.7753906,21 19.7753906,20.84375 C19.7753906,20.84375 19.7753906,20.84375 19.7753906,20.84375 C19.7753906,20.84375 19.7753906,20.84375 19.7753906,20.84375 C19.7753906,19.4179688 19.5117188,18.0800781 18.984375,16.8300781 C18.4375,15.5800781 17.7001953,14.4912109 16.7724609,13.5634766 C15.8447266,12.6357422 14.7558594,11.8984375 13.5058594,11.3515625 C12.2558594,10.8046875 10.9277344,10.53125 9.52148438,10.53125 L8.58398438,10.5898438 L8.58398438,6.72265625 L9.52148438,6.72265625 C11.4550781,6.72265625 13.28125,7.08398438 15,7.80664062 C16.6992188,8.54882812 18.1835938,9.5546875 19.453125,10.8242188 C20.7226562,12.09375 21.7285156,13.5878906 22.4707031,15.3066406 C23.2128906,17.0058594 23.5839844,18.8320312 23.5839844,20.7851562 C23.5839844,20.9414062 23.5839844,21.0927734 23.5839844,21.2392578 C23.5839844,21.3857422 23.5839844,21.546875 23.5839844,21.7226562 Z" id="RSS" fill="#FFFFFF" fill-rule="nonzero"></path>
    </g>
</svg>