<?xml version="1.0" encoding="utf-8"?>
<!-- Generator: Adobe Illustrator 28.2.0, SVG Export Plug-In . SVG Version: 6.00 Build 0)  -->
<svg version="1.1" id="Layer_1" xmlns="http://www.w3.org/2000/svg" xmlns:xlink="http://www.w3.org/1999/xlink" x="0px" y="0px"
	 viewBox="0 0 15 15" style="enable-background:new 0 0 15 15;" xml:space="preserve">
<style type="text/css">
	.st0{fill:#252525;}
</style>
<g id="App">
	<g id="Close" transform="translate(0.2832, 0.6992)">
		<path id="Path" class="st0" d="M8.1,6.8l6.4-6.4c0.1-0.1,0.1-0.1,0.2-0.2c0-0.1,0.1-0.2,0.1-0.2c0-0.2-0.1-0.3-0.2-0.4
			c-0.1-0.1-0.3-0.2-0.4-0.2c-0.1,0-0.2,0-0.3,0c-0.1,0-0.1,0.1-0.2,0.1l0,0L7.2,5.9L0.8-0.5c0-0.1-0.1-0.1-0.2-0.2
			c-0.1,0-0.2-0.1-0.3-0.1c-0.1,0-0.1,0-0.2,0.1C0-0.6,0-0.6-0.1-0.5l0,0c0,0-0.1,0.1-0.1,0.2S-0.3-0.1-0.3,0c0,0.1,0,0.1,0.1,0.2
			s0.1,0.2,0.1,0.2l0,0l6.4,6.4l-6.4,6.4c0,0.1-0.1,0.1-0.1,0.2c0,0.1-0.1,0.1-0.1,0.2c0,0.1,0,0.2,0.1,0.2s0.1,0.1,0.1,0.2l0,0
			c0.1,0,0.1,0.1,0.2,0.1s0.1,0.1,0.2,0.1l0,0l0,0l0,0l0,0l0,0c0.1,0,0.2,0,0.3-0.1s0.1-0.1,0.2-0.1l0,0l6.4-6.4l6.5,6.4
			c0,0,0.1,0.1,0.2,0.1c0.1,0,0.2,0.1,0.3,0.1c0.1,0,0.1,0,0.2-0.1c0.1,0,0.1-0.1,0.2-0.1l0,0c0.1-0.1,0.1-0.1,0.2-0.2
			c0-0.1,0.1-0.1,0.1-0.2c0-0.1,0-0.2-0.1-0.2c0-0.1-0.1-0.1-0.2-0.2l0,0L8.1,6.8z"/>
	</g>
	<g id="_x31_9021594">
	</g>
	<g id="_x31_9021594_00000180364516320838383710000018317560225877184421_">
	</g>
</g>
</svg>
