<?xml version="1.0" encoding="UTF-8"?>
<svg width="30px" height="31px" viewBox="0 0 30 31" version="1.1" xmlns="http://www.w3.org/2000/svg" xmlns:xlink="http://www.w3.org/1999/xlink">
    <title>instagram</title>
    <g id="App" stroke="none" stroke-width="1" fill="none" fill-rule="evenodd">
        <g id="19021594"></g>
        <g id="19021594"></g>
        <path d="M15,30.2773438 C12.9296875,30.2773438 10.9863281,29.8867188 9.16992188,29.1054688 C7.33398438,28.3242188 5.73730469,27.2548828 4.37988281,25.8974609 C3.02246094,24.5400391 1.953125,22.953125 1.171875,21.1367188 C0.390625,19.3007812 0,17.3476562 0,15.2773438 C0,13.2070312 0.390625,11.2636719 1.171875,9.44726562 C1.953125,7.63085938 3.02246094,6.04394531 4.37988281,4.68652344 C5.73730469,3.32910156 7.33398438,2.25976562 9.16992188,1.47851562 C10.9863281,0.677734375 12.9296875,0.27734375 15,0.27734375 C17.0703125,0.27734375 19.0136719,0.677734375 20.8300781,1.47851562 C22.6660156,2.25976562 24.2626953,3.32910156 25.6201172,4.68652344 C26.9775391,6.04394531 28.046875,7.63085938 28.828125,9.44726562 C29.609375,11.2636719 30,13.2070312 30,15.2773438 C30,16.2734375 29.9023438,17.2597656 29.7070312,18.2363281 C29.5117188,19.1933594 29.2285156,20.1210938 28.8574219,21.0195312 C28.4863281,21.9179688 28.0273438,22.7773438 27.4804688,23.5976562 C26.9335938,24.4179688 26.3085938,25.1796875 25.6054688,25.8828125 C24.9023438,26.5859375 24.140625,27.2109375 23.3203125,27.7578125 C22.5,28.3046875 21.640625,28.7636719 20.7421875,29.1347656 C19.84375,29.5058594 18.90625,29.7890625 17.9296875,29.984375 C16.9726562,30.1796875 15.9960938,30.2773438 15,30.2773438 Z M19.5703125,7.16210938 L10.4296875,7.16210938 C9.9609375,7.16210938 9.50683594,7.25 9.06738281,7.42578125 C8.62792969,7.6015625 8.2421875,7.85546875 7.91015625,8.1875 C7.578125,8.51953125 7.32421875,8.90527344 7.1484375,9.34472656 C6.97265625,9.78417969 6.88476562,10.2382812 6.88476562,10.7070312 L6.88476562,19.8476562 C6.88476562,20.3359375 6.97265625,20.7949219 7.1484375,21.2246094 C7.32421875,21.6542969 7.578125,22.0351562 7.91015625,22.3671875 C8.2421875,22.6992188 8.62792969,22.9580078 9.06738281,23.1435547 C9.50683594,23.3291016 9.9609375,23.421875 10.4296875,23.421875 L19.5703125,23.421875 C20.0390625,23.421875 20.4931641,23.3291016 20.9326172,23.1435547 C21.3720703,22.9580078 21.7578125,22.6992188 22.0898438,22.3671875 C22.421875,22.0351562 22.6757812,21.6542969 22.8515625,21.2246094 C23.0273438,20.7949219 23.1152344,20.3359375 23.1152344,19.8476562 L23.1152344,10.7070312 C23.1152344,10.2382812 23.0273438,9.78417969 22.8515625,9.34472656 C22.6757812,8.90527344 22.421875,8.51953125 22.0898438,8.1875 C21.7578125,7.85546875 21.3720703,7.6015625 20.9326172,7.42578125 C20.4931641,7.25 20.0390625,7.16210938 19.5703125,7.16210938 Z M15,19.0273438 C13.9648438,19.0273438 13.0810547,18.6611328 12.3486328,17.9287109 C11.6162109,17.1962891 11.25,16.3125 11.25,15.2773438 C11.25,14.2421875 11.6162109,13.3583984 12.3486328,12.6259766 C13.0810547,11.8935547 13.9648438,11.5273438 15,11.5273438 C16.0351562,11.5273438 16.9189453,11.8935547 17.6513672,12.6259766 C18.3837891,13.3583984 18.75,14.2421875 18.75,15.2773438 C18.75,16.3125 18.3837891,17.1962891 17.6513672,17.9287109 C16.9189453,18.6611328 16.0351562,19.0273438 15,19.0273438 Z M19.6875,11.5273438 C19.4921875,11.5273438 19.3164062,11.4736328 19.1601562,11.3662109 C19.0039062,11.2587891 18.8867188,11.1269531 18.8085938,10.9707031 C18.75,10.7949219 18.7402344,10.6142578 18.7792969,10.4287109 C18.8183594,10.2431641 18.8964844,10.0820312 19.0136719,9.9453125 C19.1308594,9.80859375 19.2724609,9.71582031 19.4384766,9.66699219 C19.6044922,9.61816406 19.7753906,9.61328125 19.9511719,9.65234375 C20.1074219,9.7109375 20.2490234,9.79882812 20.3759766,9.91601562 C20.5029297,10.0332031 20.5859375,10.1796875 20.625,10.3554688 C20.6640625,10.5117188 20.6591797,10.6728516 20.6103516,10.8388672 C20.5615234,11.0048828 20.4785156,11.1464844 20.3613281,11.2636719 C20.2636719,11.3613281 20.15625,11.4345703 20.0390625,11.4833984 C19.921875,11.5322266 19.8046875,11.546875 19.6875,11.5273438 Z M17.4902344,15.2773438 C17.4902344,14.7695312 17.3535156,14.3056641 17.0800781,13.8857422 C16.8066406,13.4658203 16.4355469,13.1582031 15.9667969,12.9628906 C15.4980469,12.7675781 15.0146484,12.71875 14.5166016,12.8164062 C14.0185547,12.9140625 13.5839844,13.1484375 13.2128906,13.5195312 C12.7246094,14.0078125 12.4804688,14.5986328 12.4804688,15.2919922 C12.4804688,15.9853516 12.7246094,16.5761719 13.2128906,17.0644531 C13.7207031,17.5527344 14.3164062,17.796875 15,17.796875 C15.6835938,17.796875 16.2792969,17.5527344 16.7871094,17.0644531 C17.0214844,16.8300781 17.2021484,16.5566406 17.3291016,16.2441406 C17.4560547,15.9316406 17.5097656,15.609375 17.4902344,15.2773438 Z" id="instagram" fill="#FFFFFF" fill-rule="nonzero"></path>
    </g>
</svg>