<?xml version="1.0" encoding="utf-8"?>
<!-- Generator: Adobe Illustrator 28.2.0, SVG Export Plug-In . SVG Version: 6.00 Build 0)  -->
<svg version="1.1" id="Layer_1" xmlns="http://www.w3.org/2000/svg" xmlns:xlink="http://www.w3.org/1999/xlink" x="0px" y="0px"
	 viewBox="0 0 18 18" style="enable-background:new 0 0 18 18;" xml:space="preserve">
<style type="text/css">
	.st0{fill:#252525;}
</style>
<g id="App">
	<g id="_x31_9021594">
	</g>
	<g id="_x31_9021594_00000065070521267396363120000013557795437284666543_">
	</g>
</g>
<path class="st0" d="M9,0C4,0,0,4,0,9c0,1.7,0.5,3.3,1.4,4.8L0,17.3c-0.1,0.2,0,0.4,0.1,0.5C0.2,17.9,0.4,18,0.5,18c0,0,0.1,0,0.1,0
	l4.6-0.8C6.4,17.7,7.7,18,9,18c5,0,9-4,9-9C18,4,14,0,9,0z M9,17c-1.2,0-2.4-0.3-3.5-0.8c0,0,0,0-0.1,0c0,0-0.1,0-0.1,0
	c0,0-0.1,0-0.1,0c0,0,0,0-0.1,0l-3.9,0.7l1.1-3c0,0,0,0,0,0c0,0,0-0.1,0-0.1c0,0,0-0.1,0-0.1c0,0,0-0.1,0-0.1c0,0,0-0.1,0-0.1
	c0,0,0,0,0,0C1.5,12.1,1,10.6,1,9c0-4.4,3.6-8,8-8s8,3.6,8,8S13.4,17,9,17z"/>
</svg>
